<svg id="圖層_1" data-name="圖層 1" xmlns="http://www.w3.org/2000/svg" viewBox="0 0 46.67 46.67"><defs><style>.cls-1{fill:#fccb00;}</style></defs><path class="cls-1" d="M314.1,398.09H281.63a7.1,7.1,0,0,0-7.1,7.1v32.47a7.1,7.1,0,0,0,7.1,7.1H314.1a7.1,7.1,0,0,0,7.1-7.1V405.19A7.1,7.1,0,0,0,314.1,398.09ZM285.9,434.3c-4.65-.21-8.37-3.42-8.37-8.89a8.85,8.85,0,0,1,7.75-8.84,16.07,16.07,0,0,0-2.59,8.84c0,4.56,2.19,7.87,6.63,8.89Zm25.34,0h-15.6a15.74,15.74,0,0,0,5.8-2.57l-2.37-3.86a10.27,10.27,0,0,1-5.73,2c-2.21,0-3.82-1-4-3.86,7-.65,14.43-2.5,14.43-8.61,0-3.29-2.84-6-8.32-6a11.78,11.78,0,0,0-9,3.68,12.64,12.64,0,0,1,23.71,5.06,7.73,7.73,0,0,1,1.08-.08,7.1,7.1,0,0,1,0,14.19Zm-21.59-12.23c.55-3.11,2-6.31,5.18-6.31,1.78,0,2.29,1,2.29,2C297.12,419.62,295.25,421.67,289.65,422.08Z" transform="translate(-274.53 -398.09)"/></svg>